<?xml version="1.0" encoding="UTF-8"?> <!-- Generator: Adobe Illustrator 26.0.3, SVG Export Plug-In . SVG Version: 6.00 Build 0) --> <svg xmlns="http://www.w3.org/2000/svg" xmlns:xlink="http://www.w3.org/1999/xlink" id="Слой_1" x="0px" y="0px" viewBox="0 0 841.89 212.15" style="enable-background:new 0 0 841.89 212.15;" xml:space="preserve"> <style type="text/css"> .st0{fill:#F7B452;} .st1{fill:#273038;} .st2{fill:#FFFFFF;} </style> <g> <path class="st0" d="M332.33,16.28c-8.25-2.63-17.03-1.9-24.72,2.08c-7.69,3.97-13.38,10.7-16.01,18.95 c-0.59,1.83-0.96,3.68-1.21,5.53l-30.49,2.52C254.51,19.5,231.55,0,204.12,0c-30.03,0-54.65,23.38-56.75,52.89 c-12.41,4.4-22.18,14.44-26.11,27.07L94.3,76.3c-0.34-25.71-21.34-46.53-47.13-46.53C21.16,29.77,0,50.93,0,76.93 s21.16,47.16,47.16,47.16c21.44,0,39.55-14.39,45.26-34.01l27.02,3.66c0.35,10.92,4.86,20.81,12.03,28.09l-8.55,11.83 c-0.99-0.43-2-0.81-3.05-1.15c-8.25-2.63-17.03-1.89-24.72,2.08c-7.69,3.97-13.38,10.7-16.01,18.95 c-5.43,17.03,4,35.31,21.03,40.74c3.27,1.04,6.57,1.54,9.83,1.54c13.73,0,26.51-8.8,30.9-22.56v0c3.6-11.3,0.64-23.12-6.72-31.4 l8.59-11.88c5.61,2.78,11.9,4.39,18.57,4.39c15.44,0,28.93-8.41,36.21-20.86c2.16,0.25,4.35,0.41,6.57,0.41 c8.24,0,16.06-1.8,23.14-4.96l11.82,19.66c-10.48,8.66-17.18,21.75-17.18,36.38c0,26,21.16,47.16,47.16,47.16 c26,0,47.16-21.16,47.16-47.16c0-26.01-21.16-47.16-47.16-47.16c-6.4,0-12.5,1.29-18.06,3.61l-11.83-19.68 c12.75-9.99,21.1-25.27,21.79-42.52l30.56-2.53c3.03,9.78,10.62,18,21.09,21.34c3.25,1.04,6.58,1.55,9.89,1.55 c5.1,0,10.17-1.22,14.83-3.63c7.69-3.97,13.38-10.7,16.01-18.95v0C358.79,39.99,349.35,21.72,332.33,16.28z M47.16,110.18 c-18.33,0-33.25-14.92-33.25-33.25s14.91-33.25,33.25-33.25S80.41,58.6,80.41,76.93S65.5,110.18,47.16,110.18z M127.64,169.03 c-3.1,9.72-13.53,15.1-23.25,12c-4.71-1.5-8.55-4.75-10.81-9.14c-2.27-4.39-2.69-9.4-1.19-14.11c1.5-4.71,4.75-8.55,9.14-10.81 c2.66-1.38,5.55-2.07,8.47-2.07c1.89,0,3.79,0.29,5.65,0.88C125.36,148.89,130.74,159.31,127.64,169.03z M269.07,131.74 c18.33,0,33.25,14.92,33.25,33.25s-14.91,33.24-33.25,33.24c-18.33,0-33.25-14.91-33.25-33.24S250.73,131.74,269.07,131.74z M189.61,98c-14.71-5.57-25.76-18.58-28.53-34.43c16.03,0.25,28.99,13.34,28.99,29.42C190.07,94.7,189.89,96.37,189.61,98z M161.33,120.45c-15.46,0-28.05-12.58-28.05-28.04c0-10.72,6.05-20.05,14.91-24.76c3.69,19.31,17.14,35.16,35.02,42.25 C178.08,116.32,170.19,120.45,161.33,120.45z M204.12,100c-0.52,0-1.02-0.06-1.53-0.08c0.44-2.44,0.71-4.94,0.71-7.51 c0-23.04-18.67-41.79-41.67-41.95c3.15-20.66,20.98-36.55,42.5-36.55c23.73,0,43.04,19.31,43.04,43.04S227.85,100,204.12,100z M340.1,52.79c-1.5,4.71-4.75,8.55-9.14,10.82c-4.39,2.27-9.4,2.69-14.11,1.19c-9.72-3.1-15.1-13.53-12-23.25 c1.5-4.71,4.75-8.55,9.14-10.82c2.66-1.38,5.55-2.07,8.46-2.07c1.89,0,3.79,0.29,5.65,0.88C337.81,32.64,343.2,43.07,340.1,52.79z"></path> <g> <path class="st2" d="M412.03,101.1c-5.17-2.9-11.11-4.37-17.66-4.37c-6.64,0-12.69,1.49-17.98,4.43 c-5.29,2.94-9.48,7.08-12.46,12.32c-2.98,5.25-4.49,11.23-4.49,17.79c0,6.64,1.55,12.67,4.62,17.91 c3.05,5.24,7.46,9.39,13.08,12.33c5.63,2.94,12.25,4.43,19.66,4.43c5.82,0,11.11-0.94,15.73-2.79c4.49-1.79,8.27-4.45,11.25-7.92 l-8.03-9.23c-4.88,4.8-11.12,7.23-18.56,7.23c-5.96,0-11.03-1.52-15.06-4.51c-4.05-3-6.58-7.12-7.54-12.25l-0.1-0.51h53.81 c0.15-1.84,0.22-3.28,0.22-4.3c0-6.89-1.47-13.05-4.37-18.31C421.27,108.11,417.19,103.99,412.03,101.1z M374.56,125.41l0.1-0.51 c0.9-4.79,3.06-8.69,6.43-11.57c3.61-3.09,8.08-4.65,13.29-4.65c5.29,0,9.78,1.59,13.35,4.72c3.33,2.93,5.43,6.8,6.25,11.51 l0.09,0.51H374.56z"></path> <path class="st2" d="M527.38,108.06l-0.8,1.25V97.37h-14.38v67.69h15.15v-31.98c0-6.92,1.81-12.3,5.38-16 c3.57-3.7,8.59-5.58,14.92-5.58c0.99,0,2.09,0.1,3.28,0.3V97.5C539.75,97.59,531.83,101.14,527.38,108.06z"></path> <path class="st2" d="M594.66,152.73c-5.32,0-7.74-1.58-10.58-4.69c-2.84-3.1-4.28-7.83-4.28-14.07V97.5h-15.15v38.65 c0,9.83,2.61,17.33,7.75,22.3c5.51,5.33,11.21,7.5,19.7,7.5c4.36,0,8.49-0.83,12.26-2.46c3.77-1.64,6.95-3.99,9.45-6.99l0.77-0.92 v9.48h14.38V97.5H613.8v34.16c0,6.75-1.74,12-5.18,15.61C605.17,150.89,600.47,152.73,594.66,152.73z"></path> <path class="st2" d="M758.63,151.06c-2.38,1.7-5.33,2.57-8.77,2.57c-3.18,0-5.66-0.93-7.37-2.77c-1.69-1.82-2.55-4.49-2.55-7.92 v-32.25h18.32V98.75h-18.32V82.38h-15.15v16.37h-11.28v11.94h11.28v32.63c0,7.36,2.03,13.03,6.02,16.86 c4,3.83,9.76,5.77,17.12,5.77c2.94,0,5.76-0.38,8.4-1.13c2.51-0.72,4.68-1.79,6.45-3.18L758.63,151.06z"></path> <polygon class="st2" points="464.03,165.05 480.41,165.05 480.41,84.82 509.02,84.82 509.02,71.6 434.6,71.6 434.6,84.82 464.03,84.82 "></polygon> <path class="st2" d="M703.3,145.24c0-4.73-1.23-8.43-3.66-10.98c-2.46-2.58-5.44-4.44-8.85-5.52c-3.46-1.1-7.96-2.08-13.39-2.94 c-5.48-0.94-9.59-1.96-12.2-3.04c-2.77-1.13-4.18-3.1-4.18-5.85c0-2.46,1.3-4.46,3.87-5.95c2.49-1.44,6.16-2.17,10.92-2.17 c6.24,0,12.11,1.35,17.47,4.01l5.23-11.72c-2.44-1.1-5.32-2.03-8.57-2.77c-4.65-1.06-9.36-1.59-14-1.59 c-9.09,0-16.4,1.93-21.72,5.75c-5.28,3.78-7.95,8.9-7.95,15.22c0,4.82,1.27,8.62,3.79,11.29c2.54,2.71,5.58,4.63,9.04,5.72 c3.52,1.1,8.13,2.09,13.71,2.93c5.39,0.86,9.36,1.77,11.82,2.72c2.61,1.01,3.93,2.82,3.93,5.4c0,5.3-4.97,7.99-14.78,7.99 c-4.21,0-8.54-0.63-12.87-1.87c-4.15-1.19-7.78-2.78-10.79-4.72l-5.76,11.4c3.07,2.09,7.19,3.85,12.24,5.24 c5.24,1.43,10.67,2.16,16.16,2.16c9.43,0,16.98-1.91,22.43-5.69C700.56,156.52,703.3,151.47,703.3,145.24z"></path> <path class="st2" d="M826.74,127.82c0,6.75-1.74,11.98-5.18,15.55c-3.45,3.57-8.14,5.39-13.96,5.39c-5.23,0-9.32-1.58-12.17-4.69 c-2.84-3.1-4.28-7.79-4.28-13.94V97.5H776v34.67c0,9.91,2.61,17.44,7.75,22.37c5.14,4.93,12.3,7.44,21.29,7.44 c4.2,0,8.15-0.74,11.75-2.21c0.16-0.06,0.31-0.14,0.46-0.21c0.12-0.06,0.23-0.12,0.35-0.17c0,0,1.26-0.63,1.86-0.94l0.21-0.11 c0.15-0.08,0.3-0.16,0.45-0.24c2.45-1.34,4.32-2.65,5.9-4.12c0.36-0.34,0.69-0.69,1.03-1.05l1.04-1.11v5.09 c0,7.09-1.78,12.44-5.28,15.88c-3.5,3.44-9.03,5.19-16.42,5.19h-0.43c0,0-0.01,0-0.01,0c-4.64,0-9.13-0.74-13.34-2.2 c-4.04-1.4-7.53-3.3-10.38-5.64l-6.73,11.29c3.56,2.99,8.13,5.31,13.59,6.91c5.61,1.64,11.59,2.48,17.75,2.48 c23.26,0,35.06-12.01,35.06-35.7V97.5h-15.15V127.82z"></path> </g> </g> </svg> 