<?xml version="1.0" encoding="UTF-8"?> <!-- Creator: CorelDRAW 2020 (64-Bit) --> <svg xmlns="http://www.w3.org/2000/svg" xmlns:xlink="http://www.w3.org/1999/xlink" xmlns:xodm="http://www.corel.com/coreldraw/odm/2003" xml:space="preserve" width="8.53333in" height="5.33333in" style="shape-rendering:geometricPrecision; text-rendering:geometricPrecision; image-rendering:optimizeQuality; fill-rule:evenodd; clip-rule:evenodd" viewBox="0 0 8533.33 5333.33"> <defs> <style type="text/css"> <![CDATA[ .fil0 {fill:#F7B452;fill-rule:nonzero} ]]> </style> </defs> <g id="Layer_x0020_1"> <metadata id="CorelCorpID_0Corel-Layer"></metadata> <path class="fil0" d="M4057.55 1369.73c-99.03,-191.66 -266.12,-333.21 -471.06,-398.57 -205.18,-65.36 -423.89,-47.18 -615.05,51.61 -191.43,98.79 -332.96,266.37 -398.32,471.55 -12.78,40.3 -22.36,82.56 -29,129l-730.55 60.44c-138.59,-645.28 -716.54,-1112.65 -1377.55,-1112.65 -732.52,0 -1347.57,571.07 -1403.1,1301.37 -302.48,109.59 -540.35,355.56 -638.15,660.26l-643.81 -87.24c-13.27,-631.52 -534.94,-1143.61 -1167.45,-1143.61 -644.54,0 -1168.67,524.14 -1168.67,1168.44 0,644.3 524.14,1168.43 1168.44,1168.43 512.59,0 971.36,-342.3 1118.54,-833.51l645.03 87.48c10.32,256.29 113.77,497.6 291.92,681.16l-199.53 276.2c-22.85,-9.58 -45.71,-18.18 -68.06,-25.31 -205.43,-65.61 -423.64,-46.93 -615.06,51.61 -191.43,98.79 -332.96,266.12 -398.32,471.3 -65.36,204.94 -46.93,423.39 51.85,615.05 99.03,191.67 266.12,333.21 471.06,398.57 79.37,25.31 161.69,38.09 244.74,38.09 352.61,0 661.74,-225.57 768.88,-561.24l0.49 -1.72c84.04,-266.12 22.11,-561.24 -161.93,-773.06l200.51 -277.42c143.26,69.54 295.37,104.92 452.38,104.92 364.91,0 707.2,-195.84 894.69,-511.36 56.03,6.15 106.89,9.33 155.55,9.33 194.61,0 384.07,-40.05 563.94,-118.93l280.37 466.63c-266.12,223.12 -418.47,548.95 -418.47,895.18 0,644.3 524.14,1168.44 1168.44,1168.44 644.3,0 1168.43,-524.14 1168.43,-1168.44 0,-644.3 -524.14,-1168.43 -1168.43,-1168.43 -151.37,0 -298.8,29 -438.87,86l-280.87 -467.13c319.2,-253.83 512.34,-630.53 531.01,-1036.47l732.27 -60.45c80.11,248.68 274.47,443.54 522.17,522.66 80.11,25.56 162.92,38.58 245.97,38.58 129,0 253.1,-30.46 369.08,-90.19 191.43,-98.79 332.96,-266.12 398.32,-471.3l0.49 -1.72c64.88,-204.69 46.2,-422.41 -52.32,-613.58zm-293.9 504.72c-35.88,112.79 -113.77,204.94 -218.94,259.24 -105.17,54.31 -225.33,64.38 -338.12,28.5 -232.94,-74.21 -361.96,-324.36 -287.75,-557.31 35.88,-112.79 113.77,-204.94 219.19,-259.24 62.66,-32.43 132.94,-49.64 202.73,-49.64 45.71,0 91.16,7.13 135.4,21.13 232.94,74.46 361.95,324.37 287.49,557.31zm-2281.82 105.42c0,576.72 -469.09,1045.81 -1045.81,1045.81 -7.37,0 -14.74,-0.49 -22.11,-0.98 -0.98,0 -1.96,-0.25 -2.95,-0.25 10.32,-60.94 15.48,-118.19 15.48,-174.22 0,-565.67 -457.05,-1029.6 -1021.24,-1040.17 82.32,-500.3 523.16,-876.02 1030.58,-876.02 576.96,0 1046.06,469.1 1046.06,1045.82zm-1418.34 870.37c0,32.43 -2.7,66.1 -8.6,102.47 -333.7,-131.22 -579.67,-427.81 -645.77,-779.2 361.96,12.52 654.37,313.3 654.37,676.73zm-157.75 433.7c-129.74,155.3 -318.46,244.01 -519.96,244.01 -373.76,0 -677.71,-303.96 -677.71,-677.71 0,-245.97 132.94,-471.3 347.71,-591.46 92.38,457.3 416.26,848 849.96,1025.17zm1319.06 1348.06c0,-444.03 361.22,-805.49 805.49,-805.49 444.03,0 805.49,361.22 805.49,805.49 0,444.03 -361.22,805.24 -805.49,805.24 -444.02,0.01 -805.49,-361.21 -805.49,-805.24zm-2676.21 95.84c-74.46,232.94 -324.36,361.71 -557.31,287.75 -112.79,-36.13 -204.94,-113.77 -259.24,-219.19 -54.31,-105.17 -64.38,-225.33 -28.5,-338.11 36.13,-112.79 113.77,-204.94 218.94,-259.24 63.65,-32.93 131.96,-49.64 202.73,-49.64 45.71,0 91.16,7.13 135.4,21.13 233.19,74.46 362.19,324.36 287.98,557.31zm-1159.83 -2257.49c0,444.03 -361.22,805.49 -805.49,805.49 -444.27,0 -805.5,-361.22 -805.5,-805.49 0,-444.27 361.22,-805.5 805.5,-805.5 444.27,0 805.49,361.21 805.49,805.5z"></path> </g> </svg> 